<svg id="Layer_1" data-name="Layer 1" xmlns="http://www.w3.org/2000/svg" viewBox="0 0 64 64"><defs><style>.cls-1{fill:#b4d380;}.cls-2{fill:#fdd870;}.cls-3{fill:#76cbea;}.cls-4{fill:#1e1814;}</style></defs><path class="cls-1" d="M56.59,26.59l-1.65-1.65L39.06,9.06,37.41,7.41a4.83,4.83,0,0,0-6.82,0L3.41,34.59a4.83,4.83,0,0,0,0,6.82L22.59,60.59a4.83,4.83,0,0,0,6.82,0L56.59,33.41a4.83,4.83,0,0,0,0-6.82Z"/><rect class="cls-2" x="22.17" y="36.17" width="5.66" height="5.66" transform="translate(-20.25 29.1) rotate(-45)"/><rect class="cls-2" x="20.72" y="46.67" width="15.56" height="5.66" transform="translate(-26.65 34.65) rotate(-45)"/><rect class="cls-2" x="36.17" y="36.17" width="5.66" height="5.66" transform="translate(-16.15 39) rotate(-45)"/><rect class="cls-2" x="29.17" y="29.17" width="5.66" height="5.66" transform="translate(-13.25 32) rotate(-45)"/><rect class="cls-2" x="15.17" y="43.17" width="5.66" height="5.66" transform="translate(-27.25 26.2) rotate(-45)"/><rect class="cls-2" x="8.17" y="36.17" width="5.66" height="5.66" transform="translate(-24.36 19.2) rotate(-45)"/><rect class="cls-2" x="15.17" y="29.17" width="5.66" height="5.66" transform="translate(-17.36 22.1) rotate(-45)"/><rect class="cls-2" x="22.17" y="22.17" width="5.66" height="5.66" transform="translate(-10.36 25) rotate(-45)"/><path class="cls-3" d="M53,30l-6,6L28,17l6-6,4,4.05A12,12,0,0,0,49,26Z"/><path class="cls-2" d="M54.94,24.94A12,12,0,0,1,50,26c-.35,0-.7,0-1-.05a12,12,0,0,1-10.9-10.9c0-.35,0-.7,0-1.05A12,12,0,1,1,54.94,24.94Z"/><path class="cls-4" d="M63,14A13,13,0,0,0,38.82,7.4l-.7-.69a5.82,5.82,0,0,0-8.24,0L2.71,33.88a5.82,5.82,0,0,0,0,8.24L21.88,61.29a5.82,5.82,0,0,0,8.24,0L57.29,34.12a5.82,5.82,0,0,0,0-8.24l-.69-.7A13,13,0,0,0,63,14ZM48.49,26.9l3.1,3.1L47,34.59,29.41,17,34,12.41l3.1,3.1A13,13,0,0,0,48.49,26.9Zm7.39.39a3.84,3.84,0,0,1,0,5.42L28.71,59.88a3.84,3.84,0,0,1-5.42,0L4.12,40.71a3.84,3.84,0,0,1,0-5.42L31.29,8.12a3.84,3.84,0,0,1,5.42,0l1.18,1.19a12.74,12.74,0,0,0-.82,3.35L34,9.59,26.59,17,47,37.41,54.41,30l-3.07-3.07a12.74,12.74,0,0,0,3.35-.82ZM50,25A11,11,0,1,1,61,14,11,11,0,0,1,50,25Z"/><path class="cls-4" d="M55.29,7.29,54,8.59l-2-2-3,3a3.4,3.4,0,0,0,0,4.82l.59.59a1.42,1.42,0,0,1,0,2L48,18.59,46.41,17a1.42,1.42,0,0,1,0-2l1.3-1.29-1.42-1.42L45,13.59A3.4,3.4,0,0,0,44,16a3.34,3.34,0,0,0,.63,2l-1.34,1.33,1.42,1.42L46,19.41l2,2,3-3a3.4,3.4,0,0,0,0-4.82L50.41,13a1.42,1.42,0,0,1,0-2L52,9.41,53.59,11a1.42,1.42,0,0,1,0,2l-1.3,1.29,1.42,1.42L55,14.41A3.4,3.4,0,0,0,56,12a3.34,3.34,0,0,0-.63-2l1.34-1.33Z"/><circle class="cls-4" cx="55" cy="19" r="1"/><circle class="cls-4" cx="45" cy="9" r="1"/><path class="cls-4" d="M19.59,53,25,58.41,37.41,46,32,40.59ZM25,55.59,22.41,53,32,43.41,34.59,46Z"/><path class="cls-4" d="M18,40.59,12.59,46,18,51.41,23.41,46ZM15.41,46,18,43.41,20.59,46,18,48.59Z"/><path class="cls-4" d="M19.59,39,25,44.41,30.41,39,25,33.59ZM25,41.59,22.41,39,25,36.41,27.59,39Z"/><path class="cls-4" d="M11,33.59,5.59,39,11,44.41,16.41,39ZM8.41,39,11,36.41,13.59,39,11,41.59Z"/><path class="cls-4" d="M23.41,32,18,26.59,12.59,32,18,37.41ZM18,29.41,20.59,32,18,34.59,15.41,32Z"/><path class="cls-4" d="M32,37.41,37.41,32,32,26.59,26.59,32ZM34.59,32,32,34.59,29.41,32,32,29.41Z"/><path class="cls-4" d="M33.59,39,39,44.41,44.41,39,39,33.59ZM39,41.59,36.41,39,39,36.41,41.59,39Z"/><path class="cls-4" d="M30.41,25,25,19.59,19.59,25,25,30.41ZM25,22.41,27.59,25,25,27.59,22.41,25Z"/></svg>